<svg viewBox="0 0 427 406" class="accent-circles" version="1.1" xmlns="http://www.w3.org/2000/svg" xmlns:xlink="http://www.w3.org/1999/xlink" role="img" alt="">
    <g stroke="none" stroke-width="3" fill="none" fill-rule="evenodd">
        <g class="accent-circles--stroke" stroke="#222">
            <path d="M27.8732,294.0154 C74.0072,418.2204 204.2502,427.6874 296.3162,373.5394 C388.6742,319.2244 414.7332,178.1404 382.4682,99.2684 C334.4132,-18.1816 224.3932,-17.3756 130.4822,33.5194 C62.5772,70.3204 -8.5048,196.0634 27.8732,294.0154 Z" ></path>
            <path d="M9.6535,231.4422 C12.0025,364.4042 131.2755,415.2352 235.6835,393.2982 C340.4125,371.2892 411.4895,245.4552 407.1965,160.0672 C400.8165,32.9072 297.1585,-1.6528 192.0885,16.5992 C116.1185,29.7972 7.8085,126.5832 9.6535,231.4422 Z" ></path>
            <path d="M55.5363,80.8894 C-40.6827,175.7944 2.5083,296.7854 89.1743,356.1144 C176.1143,415.6214 316.6803,378.2544 376.5893,315.3124 C465.8063,221.5814 421.2063,123.1764 336.8003,60.7974 C275.7703,15.6884 131.4113,6.0454 55.5363,80.8894 Z" ></path>
        </g>
    </g>
</svg>
